<svg width="72" height="72" xmlns="http://www.w3.org/2000/svg"><g transform="translate(1 1)" fill="none" fill-rule="evenodd"><circle stroke="#2d3349" stroke-width="2" cx="35" cy="35" r="35"/><path d="M25.72 29.32v22h-7.3v-22h7.3zm.46-6.78a3.5 3.5 0 01-1.12 2.7 4.18 4.18 0 01-3 1.08 4 4 0 01-2.92-1.08 3.62 3.62 0 01-1.14-2.7 3.56 3.56 0 011.14-2.72 4.16 4.16 0 012.98-1.08 4 4 0 012.94 1.08 3.7 3.7 0 011.14 2.72h-.02zM52 38.68v12.58h-7.28V39.52a6.4 6.4 0 00-.9-3.64 3.14 3.14 0 00-2.8-1.32 3.58 3.58 0 00-2.34.76 4.7 4.7 0 00-1.4 1.9 5.36 5.36 0 00-.24 1.8v12.24h-7.28V36.94 29.32h7.28v3.18a9.64 9.64 0 01.9-1.24 9.44 9.44 0 011.26-1.16 5.76 5.76 0 012-.96 8.78 8.78 0 012.54-.34 7.86 7.86 0 016 2.52A10.54 10.54 0 0152 38.68z" fill="#2d3349" fill-rule="nonzero"/></g></svg>