<?xml version="1.0" encoding="UTF-8"?>
<svg width="72px" height="72px" viewBox="0 0 72 72" version="1.1" xmlns="http://www.w3.org/2000/svg" xmlns:xlink="http://www.w3.org/1999/xlink">
    <!-- Generator: Sketch 62 (91390) - https://sketch.com -->
    <title>Group 18</title>
    <desc>Created with Sketch.</desc>
    <g id="ALS-Style-Guide" stroke="none" stroke-width="1" fill="none" fill-rule="evenodd">
        <g id="ALS_StyleGuide_DesignElements" transform="translate(-1060.000000, -1321.000000)">
            <g id="Group-18" transform="translate(1061.000000, 1322.000000)">
                <circle id="Oval" stroke="#2d3349" stroke-width="2" cx="35" cy="35" r="35"></circle>
                <path d="M31.5,39.4 L40.68,34.66 L31.5,29.86 L31.5,39.4 Z M35,23.04 C37.12,23.04 39.1733333,23.04 41.16,23.04 C43.1466667,23.04 44.6,23.1 45.52,23.22 L46.9,23.22 L47.22,23.22 L47.66,23.22 L48.1,23.22 C48.2851903,23.2539257 48.4662202,23.3075641 48.64,23.38 L49.18,23.62 C49.3841837,23.7215663 49.5783707,23.8420962 49.76,23.98 C49.9602676,24.1307778 50.1475859,24.2980263 50.32,24.48 L50.62,24.84 C50.8417809,25.1877051 51.029325,25.5560955 51.18,25.94 C51.4414765,26.5793176 51.6098592,27.2528485 51.68,27.94 C51.7866667,28.7533333 51.8666667,29.6133333 51.92,30.52 C51.9733333,31.4266667 52,32.24 52,32.96 L52,36.3 C52.0127279,38.1389555 51.8991272,39.9766137 51.66,41.8 C51.5814165,42.4446828 51.4200881,43.0765524 51.18,43.68 C51.0333256,44.091998 50.8314886,44.4822162 50.58,44.84 L50.32,45.16 C50.1475859,45.3419737 49.9602676,45.5092222 49.76,45.66 C49.5800559,45.8003372 49.3856164,45.9210237 49.18,46.02 L48.64,46.26 C48.4662202,46.3324359 48.2851903,46.3860743 48.1,46.42 L47.64,46.42 L47.2,46.42 L46.88,46.42 C43.7066667,46.66 39.74,46.78 34.98,46.78 C32.3133333,46.78 30.04,46.74 28.16,46.66 L24.36,46.52 L23.44,46.52 L22.76,46.52 C22.4101106,46.4803966 22.0628469,46.4202933 21.72,46.34 C21.3887044,46.2355822 21.067422,46.1017145 20.76,45.94 C20.3568774,45.7456259 19.9912598,45.4815688 19.68,45.16 L19.38,44.8 C19.1582191,44.4522949 18.970675,44.0839045 18.82,43.7 C18.5585235,43.0606824 18.3901408,42.3871515 18.32,41.7 C18.2133333,40.8866667 18.1333333,40.0266667 18.08,39.12 C18.0266667,38.2133333 18,37.52 18,37.04 L18,33.7 C17.9872721,31.8610445 18.1008728,30.0233863 18.34,28.2 C18.4185835,27.5553172 18.5799119,26.9234476 18.82,26.32 C18.9666744,25.908002 19.1685114,25.5177838 19.42,25.16 L19.68,24.84 C19.8524141,24.6580263 20.0397324,24.4907778 20.24,24.34 C20.4216293,24.2020962 20.6158163,24.0815663 20.82,23.98 L21.36,23.74 C21.5337798,23.6675641 21.7148097,23.6139257 21.9,23.58 L22.34,23.58 L22.78,23.58 L23.1,23.58 C26.2733333,23.22 30.24,23.04 35,23.04 Z" id="Shape" fill="#2d3349" fill-rule="nonzero"></path>
            </g>
        </g>
    </g>
</svg>
