<?xml version="1.0" encoding="UTF-8"?>
<svg width="72px" height="72px" viewBox="0 0 72 72" version="1.1" xmlns="http://www.w3.org/2000/svg" xmlns:xlink="http://www.w3.org/1999/xlink">
    <!-- Generator: Sketch 62 (91390) - https://sketch.com -->
    <title>Group 16</title>
    <desc>Created with Sketch.</desc>
    <g id="ALS-Style-Guide" stroke="none" stroke-width="1" fill="none" fill-rule="evenodd">
        <g id="ALS_StyleGuide_DesignElements" transform="translate(-836.000000, -1321.000000)">
            <g id="Group-16" transform="translate(837.000000, 1322.000000)">
                <circle id="Oval" stroke="#2d3349" stroke-width="2" cx="35" cy="35" r="35"></circle>
                <path d="M52,24.44 C50.7260379,24.9997693 49.3794086,25.3768255 48,25.56 C49.4793211,24.7014639 50.5794931,23.3155329 51.08,21.68 C49.708963,22.49817 48.2068686,23.0732962 46.64,23.38 C45.3492925,21.939864 43.4933889,21.1361263 41.56,21.18 C37.7050524,21.18 34.58,24.3050524 34.58,28.16 C34.5658556,28.697939 34.6196132,29.2355142 34.74,29.76 C29.120384,29.4637155 23.8856073,26.8136552 20.32,22.46 C19.686488,23.5317807 19.3547674,24.7550005 19.36,26 C19.2595457,28.3391258 20.4095941,30.5554443 22.38,31.82 C21.2251757,31.7699535 20.0938899,31.4769096 19.06,30.96 L19.06,30.96 C19.048224,32.5938277 19.6392484,34.1746399 20.72,35.4 C21.738647,36.6350471 23.1508893,37.4823924 24.72,37.8 C24.1674017,37.9618113 23.5957015,38.0492478 23.02,38.06 C22.583933,38.043694 22.1495401,37.9969132 21.72,37.92 C22.1721502,39.3004343 23.0379647,40.5083851 24.2,41.38 C25.3439032,42.2723689 26.7492799,42.7642508 28.2,42.78 C25.7375004,44.7315967 22.6819904,45.7830309 19.54,45.76 C18.9872,45.7943579 18.4328,45.7943579 17.88,45.76 C21.0686178,47.8156676 24.7862334,48.8996826 28.58,48.88 C30.957787,48.8980978 33.3202972,48.498705 35.56,47.7 C37.5941484,46.9891481 39.4841349,45.9188332 41.14,44.54 C42.6860987,43.2283012 44.0334952,41.6990062 45.14,40 C47.2879727,36.7404783 48.4351161,32.9236194 48.44,29.02 C48.4552469,28.7201937 48.4552469,28.4198063 48.44,28.12 C49.849591,27.1305345 51.057792,25.8816077 52,24.44 Z" id="Shape" fill="#2d3349" fill-rule="nonzero"></path>
            </g>
        </g>
    </g>
</svg>
