<?xml version="1.0" encoding="UTF-8"?>
<svg width="72px" height="72px" viewBox="0 0 72 72" version="1.1" xmlns="http://www.w3.org/2000/svg" xmlns:xlink="http://www.w3.org/1999/xlink">
    <!-- Generator: Sketch 62 (91390) - https://sketch.com -->
    <title>Group 15</title>
    <desc>Created with Sketch.</desc>
    <g id="ALS-Style-Guide" stroke="none" stroke-width="1" fill="none" fill-rule="evenodd">
        <g id="ALS_StyleGuide_DesignElements" transform="translate(-724.000000, -1321.000000)">
            <g id="Group-15" transform="translate(725.000000, 1322.000000)">
                <circle id="Oval" stroke="#2d3349" stroke-width="2" cx="35" cy="35" r="35"></circle>
                <path d="M40.66,35 C40.6663514,32.7033105 39.2842019,30.6304733 37.1615869,29.7533596 C35.0389719,28.876246 32.5967569,29.3687674 30.98,31 C29.4703987,32.4121488 28.8507092,34.5349569 29.3635002,36.5374818 C29.8762911,38.5400067 31.4399933,40.1037089 33.4425182,40.6164998 C35.4450431,41.1292908 37.5678512,40.5096013 38.98,39 C40.0684295,37.9559306 40.6765014,36.5081404 40.66,35 Z M43.7200231,35 C43.7253264,37.3143166 42.8083253,39.5353788 41.171852,41.171852 C39.5353788,42.8083253 37.3143166,43.7253264 35,43.7200231 C32.6856834,43.7253264 30.4646212,42.8083253 28.828148,41.171852 C27.1916747,39.5353788 26.2746736,37.3143166 26.2799769,35 C26.2746736,32.6856834 27.1916747,30.4646212 28.828148,28.828148 C30.4646212,27.1916747 32.6856834,26.2746736 35,26.2799769 C37.3143166,26.2746736 39.5353788,27.1916747 41.171852,28.828148 C42.8083253,30.4646212 43.7253264,32.6856834 43.7200231,35 L43.7200231,35 Z M46.1200342,26 C46.1144448,26.9511507 45.4397744,27.7668028 44.5065377,27.9506175 C43.573301,28.1344322 42.6397137,27.6355502 42.2738803,26.7575499 C41.9080468,25.8795496 42.211189,24.8653636 42.9988395,24.332142 C43.78649,23.7989204 44.840715,23.8941994 45.52,24.56 C45.9066723,24.9389966 46.1231622,25.4585724 46.1200342,26 Z M35,21.06 L31,21.06 L28.86,21.06 C28.0960183,21.0835769 27.3343947,21.1570669 26.58,21.28 C26.0421849,21.3646167 25.5132911,21.4985139 25,21.68 C23.5210885,22.2695396 22.3495396,23.4410885 21.76,24.92 C21.5785139,25.4332911 21.4446167,25.9621849 21.36,26.5 C21.2370669,27.2543947 21.1635769,28.0160183 21.14,28.78 C21.14,29.6733333 21.14,30.3866667 21.14,30.92 C21.14,31.4533333 21.14,32.2333333 21.14,33.26 C21.14,34.2866667 21.14,34.8533333 21.14,34.96 C21.14,35.0666667 21.14,35.6333333 21.14,36.66 C21.14,37.6866667 21.14,38.4666667 21.14,39 C21.14,39.5333333 21.14,40.2466667 21.14,41.14 C21.1635769,41.9039817 21.2370669,42.6656053 21.36,43.42 C21.4446167,43.9578151 21.5785139,44.4867089 21.76,45 C22.3495396,46.4789115 23.5210885,47.6504604 25,48.24 C25.5132911,48.4214861 26.0421849,48.5553833 26.58,48.64 C27.3343947,48.7629331 28.0960183,48.8364231 28.86,48.86 L31,48.86 L39,48.86 L41.14,48.86 C41.9039817,48.8364231 42.6656053,48.7629331 43.42,48.64 C43.9578151,48.5553833 44.4867089,48.4214861 45,48.24 C46.4789115,47.6504604 47.6504604,46.4789115 48.24,45 C48.4214861,44.4867089 48.5553833,43.9578151 48.64,43.42 C48.7629331,42.6656053 48.8364231,41.9039817 48.86,41.14 C48.86,40.2466667 48.86,39.5333333 48.86,39 C48.86,38.4666667 48.86,37.6866667 48.86,36.66 C48.86,35.6333333 48.86,35.0666667 48.86,34.96 C48.86,34.8533333 48.86,34.2866667 48.86,33.26 C48.86,32.2333333 48.86,31.4533333 48.86,30.92 C48.86,30.3866667 48.86,29.6733333 48.86,28.78 C48.8364231,28.0160183 48.7629331,27.2543947 48.64,26.5 C48.5553833,25.9621849 48.4214861,25.4332911 48.24,24.92 C47.6504604,23.4410885 46.4789115,22.2695396 45,21.68 C44.4867089,21.4985139 43.9578151,21.3646167 43.42,21.28 C42.6656053,21.1570669 41.9039817,21.0835769 41.14,21.06 L39,21.06 L35,21.06 L35,21.06 Z M52,35.06 C52,38.3533333 51.96,40.6666667 51.88,42 C51.9035666,44.6350966 50.9240093,47.1805155 49.14,49.12 C47.1985368,50.9160336 44.6447073,51.9032282 42,51.88 C40.6666667,51.96 38.3333333,52 35,52 C31.6666667,52 29.3333333,51.96 28,51.88 C25.3649034,51.9035666 22.8194845,50.9240093 20.88,49.14 C19.0839664,47.1985368 18.0967718,44.6447073 18.12,42 C18.04,40.6666667 18,38.3333333 18,35 C18,31.6666667 18.04,29.3333333 18.12,28 C18.0964334,25.3649034 19.0759907,22.8194845 20.86,20.88 C22.8014632,19.0839664 25.3552927,18.0967718 28,18.12 C29.3333333,18.04 31.6666667,18 35,18 C38.3333333,18 40.6733333,18.04 42.02,18.12 C44.6550966,18.0964334 47.2005155,19.0759907 49.14,20.86 C50.9287589,22.8045393 51.9086653,25.3580178 51.88,28 C51.96,29.3333333 52,31.6666667 52,35 L52,35.06 Z" id="Shape" fill="#2d3349" fill-rule="nonzero"></path>
            </g>
        </g>
    </g>
</svg>
